<svg id="Adobe_XD_CC_icon" xmlns="http://www.w3.org/2000/svg" width="87.188" height="85.008" viewBox="0 0 87.188 85.008">
  <path id="Path_55" data-name="Path 55" d="M71.748,85.008H15.439A15.426,15.426,0,0,1,0,69.568V15.439A15.426,15.426,0,0,1,15.439,0H71.748A15.426,15.426,0,0,1,87.188,15.439V69.568A15.426,15.426,0,0,1,71.748,85.008Z" fill="#ff26be"/>
  <path id="Path_56" data-name="Path 56" d="M76.994,88.051H23.238A13.261,13.261,0,0,1,10,74.812V23.24A13.261,13.261,0,0,1,23.238,10h53.72A13.238,13.238,0,0,1,90.2,23.24V74.775A13.215,13.215,0,0,1,76.994,88.051Z" transform="translate(-6.522 -6.522)" fill="#2e001f"/>
  <path id="Path_57" data-name="Path 57" d="M62.23,75.2l9.739,18.713c.174.278.07.557-.209.557H65.708a.683.683,0,0,1-.73-.452c-2.226-4.591-4.487-9.182-6.817-14.121h-.07C56,84.552,53.708,89.456,51.482,94.047a.668.668,0,0,1-.626.383H45.117c-.348,0-.383-.278-.209-.487l9.53-18.156L45.222,57.422a.281.281,0,0,1,.209-.487h5.982a.548.548,0,0,1,.626.383c2.191,4.591,4.417,9.322,6.5,13.948h.07c2.017-4.591,4.243-9.356,6.4-13.913.174-.278.278-.452.626-.452h5.6c.278,0,.383.209.209.487Zm11.443,5.669c0-8.1,5.391-14.434,13.948-14.434a15.426,15.426,0,0,1,1.809.07V57.283a.349.349,0,0,1,.348-.348h5.5c.278,0,.348.1.348.278v31.93a24.774,24.774,0,0,0,.174,3.409c0,.209-.07.278-.278.383a20.718,20.718,0,0,1-8.9,2.017C79.064,94.986,73.673,90.325,73.673,80.865Zm15.756-8.9a5.26,5.26,0,0,0-2.017-.348c-4.383,0-7.443,3.374-7.443,8.974,0,6.4,3.13,8.974,7.061,8.974a6.562,6.562,0,0,0,2.4-.383Z" transform="translate(-27.442 -35.457)" fill="#ffd9f2"/>
</svg>
