<svg id="bootstrap-4" xmlns="http://www.w3.org/2000/svg" width="85.008" height="85.008" viewBox="0 0 85.008 85.008">
  <path id="Path_60" data-name="Path 60" d="M0,74.047A10.961,10.961,0,0,0,10.961,85.008H74.046A10.961,10.961,0,0,0,85.008,74.047V10.961A10.961,10.961,0,0,0,74.047,0H10.961A10.961,10.961,0,0,0,0,10.961V74.046Z" fill="#563d7c"/>
  <path id="Path_61" data-name="Path 61" d="M83.115,71.666V59.435H93.452a15.455,15.455,0,0,1,2.848.256,6.93,6.93,0,0,1,2.426.915,4.8,4.8,0,0,1,1.688,1.831,6.289,6.289,0,0,1,.633,3q0,3.3-1.9,4.761A7.712,7.712,0,0,1,94.3,71.666ZM72.075,50.5v52.292h24.33a24.706,24.706,0,0,0,6.575-.879,17.265,17.265,0,0,0,5.7-2.71,13.2,13.2,0,0,0,3.973-4.724,16.567,16.567,0,0,0-.809-15.233,12.069,12.069,0,0,0-6.927-4.871,12.638,12.638,0,0,0,5.1-4.321,11.812,11.812,0,0,0,1.723-6.591,14.528,14.528,0,0,0-1.16-6.152,9.951,9.951,0,0,0-3.27-3.991,13.81,13.81,0,0,0-5.063-2.161A30.054,30.054,0,0,0,95.7,50.5Zm11.04,43.357V79.5H95.139a9.039,9.039,0,0,1,5.766,1.721q2.18,1.721,2.18,5.749a7.439,7.439,0,0,1-.668,3.369,5.457,5.457,0,0,1-1.793,2.087,7.428,7.428,0,0,1-2.6,1.1,14.2,14.2,0,0,1-3.094.329Z" transform="translate(-47.538 -34.142)" fill="#fff"/>
</svg>
