<svg id="css3-original" xmlns="http://www.w3.org/2000/svg" width="74.955" height="85.008" viewBox="0 0 74.955 85.008">
  <path id="Path_41" data-name="Path 41" d="M15.581,77.862,8.76,1.352H83.715l-6.828,76.5-30.7,8.51-30.611-8.5Z" transform="translate(-8.76 -1.352)" fill="#1572b6"/>
  <path id="Path_42" data-name="Path 42" d="M64,82.257l25.9-6.823,6.093-64.862H64V82.257Z" transform="translate(-28.177 -4.041)" fill="#33a9dc"/>
  <path id="Path_43" data-name="Path 43" d="M64,43.266H76.966l.9-10.033H64v-9.8H88.57l-.235,2.629-2.409,27H64v-9.8Z" transform="translate(-27.28 -8.784)" fill="#fff"/>
  <path id="Path_44" data-name="Path 44" d="M55.238,82.925l-.043.013L44.284,79.991l-.7-7.814H33.752l1.372,15.384,20.07,5.57.045-.013V82.925Z" transform="translate(-17.079 -24.781)" fill="#ebebeb"/>
  <path id="Path_45" data-name="Path 45" d="M76.143,64.675,74.963,77.8l-10.928,2.95V90.94l20.086-5.567.147-1.656,1.7-19.042h-9.83Z" transform="translate(-27.178 -22.51)" fill="#fff"/>
  <path id="Path_46" data-name="Path 46" d="M53.945,23.435v9.8H30.279l-.2-2.2-.446-4.967L29.4,23.435H53.945Zm-.033,19.832v9.8H43.138l-.2-2.2L42.495,45.9l-.234-2.629Z" transform="translate(-15.68 -8.784)" fill="#ebebeb"/>
</svg>
