<svg id="figma-1" xmlns="http://www.w3.org/2000/svg" width="56.672" height="85.009" viewBox="0 0 56.672 85.009">
  <path id="path0_fill" d="M13.578,227.156a13.583,13.583,0,0,0,13.578-13.578V200H13.578a13.578,13.578,0,0,0,0,27.156Z" transform="translate(0 -142.147)" fill="#0acf83"/>
  <path id="path1_fill" d="M0,113.578A13.583,13.583,0,0,1,13.578,100H27.155v27.156H13.578A13.583,13.583,0,0,1,0,113.578Z" transform="translate(0 -71.073)" fill="#a259ff"/>
  <path id="path1_fill_1_" d="M0,13.578A13.583,13.583,0,0,1,13.578,0H27.155V27.156H13.578A13.583,13.583,0,0,1,0,13.578Z" fill="#f24e1e"/>
  <path id="path2_fill" d="M100,0h13.578a13.578,13.578,0,0,1,0,27.156H100Z" transform="translate(-70.483)" fill="#ff7262"/>
  <path id="path3_fill" d="M127.155,113.578A13.578,13.578,0,1,1,113.578,100,13.583,13.583,0,0,1,127.155,113.578Z" transform="translate(-70.483 -71.073)" fill="#1abcfe"/>
</svg>
