<svg xmlns="http://www.w3.org/2000/svg" width="85.009" height="85.008" viewBox="0 0 85.009 85.008">
  <path id="git-original" d="M84.288,39.6,47.172,2.487a5.476,5.476,0,0,0-7.742,0l-7.707,7.708L41.5,19.971a6.5,6.5,0,0,1,8.233,8.288l9.422,9.423a6.506,6.506,0,1,1-3.9,3.672l-8.787-8.787V55.693a6.5,6.5,0,1,1-5.356-.19V32.163a6.519,6.519,0,0,1-3.535-8.544l-9.639-9.639L2.486,39.429a5.477,5.477,0,0,0,0,7.744L39.6,84.288a5.477,5.477,0,0,0,7.744,0L84.289,47.346a5.478,5.478,0,0,0,0-7.745Z" transform="translate(-0.883 -0.884)" fill="#f34f29"/>
</svg>
