<svg id="html5-original" xmlns="http://www.w3.org/2000/svg" width="74.956" height="85.008" viewBox="0 0 74.956 85.008">
  <path id="Path_37" data-name="Path 37" d="M15.854,78.172,9.032,1.661H83.988l-6.829,76.5L46.465,86.669Z" transform="translate(-9.032 -1.661)" fill="#e44d26"/>
  <path id="Path_38" data-name="Path 38" d="M64,82.587l25.77-6.829,6.063-64.922H64Z" transform="translate(-27.983 -4.336)" fill="#f16529"/>
  <path id="Path_39" data-name="Path 39" d="M53.937,43.148h-12.9l-.891-9.385H53.937V24.6H29.489l.234,2.458,2.4,25.255H53.937Zm0,23.8-.043.011L43.036,64.2l-.694-7.308H32.554L33.92,71.284,53.892,76.5l.045-.011Z" transform="translate(-15.79 -8.35)" fill="#ebebeb"/>
  <path id="Path_40" data-name="Path 40" d="M63.952,43.148v9.164H75.957L74.826,64.2,63.952,66.956v9.535l19.987-5.207.147-1.548,2.291-24.127.237-2.461H63.952Zm0-18.549v9.164H87.5l.2-2.059.445-4.646.233-2.458Z" transform="translate(-27.173 -8.35)" fill="#fff"/>
</svg>
