<svg id="javascript-original" xmlns="http://www.w3.org/2000/svg" width="85.238" height="85.239" viewBox="0 0 85.238 85.239">
  <path id="Path_47" data-name="Path 47" d="M1.408,1.408H86.646V86.647H1.408Z" transform="translate(-1.408 -1.408)" fill="#f0db4f"/>
  <path id="Path_48" data-name="Path 48" d="M92.425,85.5c-.65-4.046-3.288-7.444-11.1-10.613-2.715-1.247-5.741-2.141-6.643-4.2a4.577,4.577,0,0,1-.16-2.6c.582-2.352,3.389-3.085,5.614-2.411a6.177,6.177,0,0,1,3.608,3.346c3.827-2.478,3.819-2.462,6.491-4.165A16.592,16.592,0,0,0,88.092,62c-2.3-2.571-5.438-3.895-10.453-3.793l-2.613.338a11.855,11.855,0,0,0-6.288,3.708c-4.2,4.763-3,13.1,2.107,16.53,5.032,3.777,12.425,4.636,13.37,8.169.919,4.324-3.178,5.724-7.25,5.227-3-.624-4.67-2.149-6.474-4.923-3.321,1.922-3.321,1.922-6.735,3.886a14.988,14.988,0,0,0,3.018,4.105c6.424,6.516,22.5,6.2,25.382-3.667a12.2,12.2,0,0,0,.269-6.079ZM59.212,58.726H50.917l-.034,21.445c0,4.561.236,8.742-.506,10.023-1.213,2.52-4.358,2.208-5.791,1.719a7.117,7.117,0,0,1-3.06-3.177,4.178,4.178,0,0,0-.472-.759l-6.744,4.13A13.326,13.326,0,0,0,39.2,97.7a16.1,16.1,0,0,0,11.852,1.459,10.467,10.467,0,0,0,6.693-5.243c1.889-3.482,1.483-7.7,1.466-12.357C59.253,73.958,59.212,66.355,59.212,58.726Z" transform="translate(-14.444 -21.41)" fill="#323330"/>
</svg>
