<svg id="jquery-original-wordmark" xmlns="http://www.w3.org/2000/svg" width="80.47" height="85.008" viewBox="0 0 80.47 85.008">
  <path id="Path_51" data-name="Path 51" d="M26.137,14.943c-5.091,7.484-4.458,17.223-.568,25.176l.285.565.182.358.114.206.2.371c.121.217.244.434.371.651l.212.357q.211.346.431.689l.184.29c.2.31.41.618.624.922l.018.023.105.145c.185.261.375.519.569.774l.214.278c.172.222.348.441.526.662l.2.245c.239.288.483.575.732.856l.015.016.028.032c.243.271.492.537.744.8l.238.246c.2.2.394.4.594.6l.243.237c.268.258.538.511.814.758l.012.011.142.123q.365.324.74.639l.306.25c.2.166.409.332.616.493l.33.256q.343.258.692.508l.251.183.07.051c.22.156.447.305.672.455l.291.2c.346.223.7.445,1.052.659l.291.168c.261.154.524.305.789.453l.437.231.565.3.13.064.231.114c.3.145.594.287.9.424l.189.086q.517.232,1.044.445l.255.1c.325.129.654.254.985.373l.124.044c.363.13.73.25,1.1.368l.265.081a10.543,10.543,0,0,0,1.134.327C71.447,62.2,78.6,42.472,78.6,42.472c-6.007,8-16.668,10.116-26.77,7.765-.383-.089-.754-.211-1.127-.323l-.281-.088q-.546-.171-1.086-.361l-.149-.055c-.322-.116-.64-.238-.957-.363l-.269-.108c-.347-.14-.693-.287-1.033-.439l-.206-.094c-.293-.135-.583-.272-.872-.414l-.252-.124c-.226-.113-.45-.232-.675-.351l-.449-.242c-.274-.149-.542-.3-.808-.463l-.273-.155q-.533-.322-1.053-.66l-.284-.193c-.251-.166-.5-.335-.749-.509l-.242-.174c-.238-.171-.474-.346-.708-.523l-.314-.243c-.215-.168-.428-.337-.639-.511l-.285-.234q-.4-.338-.8-.686l-.087-.074c-.283-.254-.562-.516-.837-.778l-.235-.232c-.2-.2-.4-.4-.6-.6L36.327,41q-.376-.393-.738-.8l-.037-.04c-.255-.285-.5-.576-.748-.871l-.2-.238c-.182-.224-.362-.452-.538-.681l-.2-.251c-.213-.281-.419-.562-.622-.847-5.608-7.826-7.623-18.619-3.141-27.482M41.94,8.637c-3.681,5.419-3.482,12.675-.609,18.406a24.025,24.025,0,0,0,1.628,2.78,13.122,13.122,0,0,0,1.9,2.421c.265.3.543.591.826.877l.217.22c.275.273.555.541.843.8l.035.03.008.009c.32.287.65.562.985.834l.224.179c.337.264.679.523,1.031.77l.03.023.471.317.223.151c.251.165.506.325.765.479l.108.065c.223.131.449.26.675.386l.24.128.472.251.071.033c.325.163.652.321.986.47l.217.092c.267.115.537.229.808.335l.346.13c.247.094.493.179.742.264l.335.11a8.189,8.189,0,0,0,1.073.317c19.01,3.221,23.4-11.751,23.4-11.751C76.031,33.595,68.37,36.375,60.194,34.2q-.544-.147-1.077-.318l-.323-.107c-.253-.083-.5-.172-.753-.265l-.34-.13q-.409-.162-.811-.335l-.218-.094q-.5-.224-.992-.472l-.5-.259-.287-.151c-.212-.118-.422-.239-.63-.364l-.15-.087c-.258-.154-.511-.312-.762-.476l-.23-.157-.493-.334c-.35-.247-.692-.506-1.028-.769l-.231-.187A23.448,23.448,0,0,1,43.61,18.383,17.922,17.922,0,0,1,44.95,4.292m10.282-.367a11.555,11.555,0,0,0-.877,10.934A15.2,15.2,0,0,0,63,23.119l.472.166.208.068a5.671,5.671,0,0,0,.677.2c10.5,2.075,13.344-5.509,14.1-6.626C75.96,20.6,71.769,21.482,66.626,20.2a12.83,12.83,0,0,1-1.244-.393,14.93,14.93,0,0,1-4.069-2.244C56.712,14,53.854,7.183,56.856,1.634" transform="translate(-11.001 -1.634)" fill="#0868ac"/>
  <path id="Path_52" data-name="Path 52" d="M48.152,94.773H45.207a.389.389,0,0,0-.36.3L43.8,99.985,42.755,104.9a.387.387,0,0,1-.36.3H40.311c-2.062,0-1.824-1.45-1.4-3.436l.013-.06.046-.251.008-.047.094-.51.1-.546.107-.556.475-2.36.476-2.36a.237.237,0,0,0-.238-.3H36.97a.385.385,0,0,0-.358.3l-.65,3.134-.65,3.135v0l-.06.292c-.749,3.473-.551,6.786,3.518,6.891l.118,0h6.386a.387.387,0,0,0,.36-.3l1.377-6.58,1.377-6.581A.234.234,0,0,0,48.152,94.773Zm-31.543-.035H13.375a.393.393,0,0,0-.363.295l-.307,1.376L12.4,97.784a.231.231,0,0,0,.232.295H15.89a.389.389,0,0,0,.361-.3l.3-1.375.3-1.375A.233.233,0,0,0,16.609,94.738Zm-.938,4.282h-3.26a.394.394,0,0,0-.363.295l-.458,2.061-.457,2.061-.128.591-.44,2.1-.439,2.1c-.034.162-.1.424-.157.582,0,0-.609,1.842-1.633,1.821l-.128,0-.886-.016h0a.39.39,0,0,0-.365.288l-.338,1.444L6.282,113.8a.231.231,0,0,0,.227.3c.581.007,1.881.022,2.668.022,2.557,0,3.906-1.44,4.769-5.584l1.011-4.756.949-4.461a.233.233,0,0,0-.235-.294ZM75.694,97.9l-.135-.567-.133-.581-.068-.293c-.265-1.046-1.042-1.649-2.73-1.649l-2.628,0-2.42,0H64.857a.387.387,0,0,0-.359.3l-.121.578-.142.683-.04.192-1.226,5.837-1.164,5.541a1.315,1.315,0,0,0-.026.443c.02.081.334.148.5.148h2.456a1.518,1.518,0,0,0,.46-.067c.089-.037.221-.363.254-.526l.436-2.2.437-2.2v0l.059-.293.53-2.522.468-2.227a.388.388,0,0,1,.359-.3l7.729,0a.227.227,0,0,0,.23-.293Zm9.949-5.129-.6,0H82.574a.627.627,0,0,0-.465.25l-5.471,8.145c-.092.137-.2.118-.233-.044L76,99.335a.393.393,0,0,0-.364-.295H72.122a.215.215,0,0,0-.216.29l1.576,5.611a1.352,1.352,0,0,1,.008.584L72.8,108.24a.222.222,0,0,0,.223.293H76.5a.406.406,0,0,0,.371-.293l.687-2.715a1.8,1.8,0,0,1,.253-.535l8.881-11.98c.1-.133.045-.242-.118-.24ZM57.7,99.8v0a.36.36,0,0,1-.348.312H52.9a.193.193,0,0,1-.21-.238l0-.011h0l0-.015.02-.077a2.794,2.794,0,0,1,2.923-1.906c1.836,0,2.194.91,2.069,1.935ZM56.4,94.572c-5.723,0-7.079,3.531-7.84,7.095-.76,3.633-.7,7.028,5.227,7.028h.938l.711,0h.013c1.564-.006,3.133-.018,3.768-.023a.387.387,0,0,0,.355-.3l.24-1.191.047-.232.286-1.421a.236.236,0,0,0-.238-.3H54.577c-2.118,0-2.747-.572-2.515-2.253h8.516a.351.351,0,0,0,.31-.223l.02-.075h0c1.264-4.845.9-8.108-4.512-8.108Zm-27.05,5.212-.081.29h0l-.643,2.315-.643,2.314A.417.417,0,0,1,27.6,105H24.2c-2.58,0-3.209-2.052-2.58-5.076.628-3.094,1.86-5.018,4.4-5.212,3.471-.266,4.165,2.214,3.327,5.078Zm2.334,5.033a39.217,39.217,0,0,0,1.968-6.244c.5-3.06-1.011-7.5-6.833-7.5-5.789,0-8.3,4.237-9.263,8.844-.959,4.64.3,8.708,6.054,8.675l4.542-.017,4.244-.016a.412.412,0,0,0,.372-.293l.74-2.866a.223.223,0,0,0-.222-.295l-.709,0-.709,0a.184.184,0,0,1-.2-.214Zm28.66-2.65a.2.2,0,1,1-.2-.2A.2.2,0,0,1,60.339,102.167Z" transform="translate(-6.274 -29.107)" fill="#d1d1d1"/>
</svg>
