<svg xmlns="http://www.w3.org/2000/svg" width="75.223" height="85.008" viewBox="0 0 75.223 85.008">
  <path id="nodejs-original" d="M82.25,22.377l-31-18a6.685,6.685,0,0,0-6.471,0l-31.332,18A6.735,6.735,0,0,0,10,28.052V64.006a6.792,6.792,0,0,0,3.483,5.682l8.278,4.7c3.957,1.949,5.355,1.949,7.155,1.949,5.858,0,9.2-3.542,9.2-9.721v-35.5c0-.5-.261-1.247-.753-1.247H33.415c-.5,0-1.621.746-1.621,1.246v35.5c0,2.739-2.477,5.465-7.107,3.15l-8.554-4.93a.971.971,0,0,1-.508-.83V28.052c0-.339.39-.679.69-.853L47.545,9.23a1.094,1.094,0,0,1,1.012,0L79.407,27.2c.3.178.191.508.191.857V64.006c0,.343.129.677-.163.842L48.442,82.828a.88.88,0,0,1-.887,0l-7.949-4.745a.766.766,0,0,0-.754-.06,20.689,20.689,0,0,1-4.694,2.139c-.51.178-1.263.486.288,1.356l10.4,6.154a6.556,6.556,0,0,0,6.548,0L82.249,69.688a6.334,6.334,0,0,0,2.974-5.682V28.052a6.313,6.313,0,0,0-2.973-5.675ZM57.742,58.309c-8.244,0-10.059-2.274-10.665-6.374-.07-.441-.445-.969-.894-.969H42.154c-.5,0-.9.6-.9,1.1,0,5.249,2.854,11.608,16.488,11.608,9.87,0,15.528-3.835,15.528-10.622,0-6.729-4.546-8.5-14.118-9.762-9.675-1.279-10.658-1.925-10.658-4.191,0-1.869.832-4.361,8-4.361,6.4,0,8.76,1.374,9.731,5.688a.887.887,0,0,0,.872.7h4.045a.925.925,0,0,0,.661-.278.91.91,0,0,0,.236-.688c-.626-7.429-5.562-10.892-15.545-10.892-8.88,0-14.177,3.75-14.177,10.036,0,6.818,5.271,8.7,13.795,9.545,10.2,1,10.99,2.49,10.99,4.5,0,3.483-2.8,4.968-9.356,4.968Z" transform="translate(-10 -3.541)" fill="#83cd29"/>
</svg>
