<svg id="react-original" xmlns="http://www.w3.org/2000/svg" width="95.197" height="85.008" viewBox="0 0 95.197 85.008">
  <ellipse id="Ellipse_1" data-name="Ellipse 1" cx="8.076" cy="8.076" rx="8.076" ry="8.076" transform="translate(39.523 34.428)" fill="#61dafb"/>
  <path id="Path_36" data-name="Path 36" d="M81.922,36.309c-1.673-.608-3.422-1.217-5.246-1.749.456-1.825.836-3.65,1.141-5.4,1.6-10.037-.152-17.108-5.018-19.845A9.445,9.445,0,0,0,67.931,8.1C62.609,8.1,55.842,12.054,49,18.669,42.155,12.054,35.388,8.1,30.065,8.1A9.445,9.445,0,0,0,25.2,9.317c-4.866,2.813-6.615,9.885-5.018,19.845.3,1.749.684,3.574,1.141,5.4a53.025,53.025,0,0,0-5.246,1.749C6.57,39.959,1.4,44.977,1.4,50.6S6.646,61.249,16.075,64.9c1.673.608,3.422,1.217,5.246,1.749-.456,1.825-.836,3.65-1.141,5.4-1.6,10.037.152,17.108,5.018,19.845a9.445,9.445,0,0,0,4.866,1.217c5.4,0,12.166-3.954,18.933-10.569,6.843,6.615,13.61,10.569,18.933,10.569A9.445,9.445,0,0,0,72.8,91.892c4.866-2.813,6.615-9.885,5.018-19.845-.3-1.749-.684-3.574-1.141-5.4A53.023,53.023,0,0,0,81.922,64.9C91.426,61.249,96.6,56.231,96.6,50.6S91.426,39.959,81.922,36.309ZM70.668,13.118c3.117,1.825,4.182,7.452,2.889,15.435a45.786,45.786,0,0,1-1.064,5.018,90.333,90.333,0,0,0-12.546-1.9,109.707,109.707,0,0,0-7.908-9.885c5.627-5.551,11.329-9.352,15.967-9.352a5.137,5.137,0,0,1,2.661.684ZM62.152,58.208c-1.369,2.433-2.965,4.866-4.638,7.3-2.813.228-5.627.3-8.516.3-2.965,0-5.779-.076-8.516-.3q-2.509-3.65-4.562-7.3c-1.445-2.509-2.813-5.094-4.03-7.6,1.217-2.509,2.585-5.094,4.03-7.6,1.369-2.433,2.965-4.866,4.638-7.3,2.813-.228,5.627-.3,8.516-.3,2.965,0,5.779.076,8.516.3q2.509,3.65,4.562,7.3c1.445,2.509,2.813,5.094,4.03,7.6C64.89,53.113,63.6,55.622,62.152,58.208ZM68.463,55.7c1.141,2.661,2.053,5.246,2.889,7.832-2.585.608-5.322,1.065-8.212,1.445.912-1.445,1.9-2.965,2.737-4.562.912-1.6,1.749-3.194,2.585-4.714ZM49,76.3c-1.825-1.977-3.574-4.106-5.246-6.311,1.749.076,3.5.152,5.246.152s3.5-.076,5.246-.152C52.572,72.2,50.823,74.327,49,76.3ZM34.856,64.9c-2.889-.38-5.627-.836-8.212-1.445.836-2.509,1.749-5.17,2.889-7.832.836,1.521,1.673,3.117,2.585,4.638.912,1.673,1.825,3.117,2.737,4.638ZM29.533,45.51c-1.141-2.661-2.053-5.246-2.889-7.832,2.585-.608,5.322-1.065,8.212-1.445-.912,1.445-1.9,2.965-2.737,4.562C31.206,42.392,30.37,43.989,29.533,45.51ZM49,24.9c1.825,1.977,3.574,4.106,5.246,6.311-1.749-.076-3.5-.152-5.246-.152s-3.5.076-5.246.152C45.425,29.01,47.173,26.881,49,24.9Zm16.88,15.968-2.737-4.562c2.889.38,5.627.836,8.212,1.445-.836,2.509-1.749,5.17-2.889,7.832C67.627,43.989,66.791,42.392,65.878,40.871ZM24.439,28.554c-1.293-7.984-.228-13.61,2.889-15.435a5.137,5.137,0,0,1,2.661-.684c4.562,0,10.265,3.726,15.967,9.352a99.951,99.951,0,0,0-7.908,9.885,103.374,103.374,0,0,0-12.546,1.9c-.456-1.749-.76-3.422-1.064-5.018ZM5.658,50.6c0-3.574,4.334-7.375,11.938-10.189a45.588,45.588,0,0,1,4.866-1.6A110.829,110.829,0,0,0,27.024,50.68a95.813,95.813,0,0,0-4.562,11.786c-10.493-3.041-16.8-7.6-16.8-11.862ZM27.328,88.09c-3.117-1.825-4.182-7.452-2.889-15.435A45.785,45.785,0,0,1,25.5,67.636a90.334,90.334,0,0,0,12.546,1.9,109.708,109.708,0,0,0,7.908,9.885c-5.627,5.551-11.329,9.352-15.967,9.352a5.137,5.137,0,0,1-2.661-.684Zm46.23-15.435c1.293,7.984.228,13.61-2.889,15.435a5.137,5.137,0,0,1-2.661.684c-4.562,0-10.265-3.726-15.967-9.352a99.951,99.951,0,0,0,7.908-9.885,103.375,103.375,0,0,0,12.546-1.9C72.95,69.385,73.254,71.058,73.558,72.655ZM80.4,60.793a45.587,45.587,0,0,1-4.866,1.6,110.826,110.826,0,0,0-4.562-11.862,95.812,95.812,0,0,0,4.562-11.786c10.493,3.041,16.8,7.6,16.8,11.862C92.339,54.178,87.929,57.98,80.4,60.793Z" transform="translate(-1.4 -8.1)" fill="#61dafb"/>
</svg>
