<svg id="redux-original" xmlns="http://www.w3.org/2000/svg" width="85.008" height="85.008" viewBox="0 0 85.008 85.008">
  <path id="Path_53" data-name="Path 53" d="M0,0H85.008V85.008H0Z" fill="none"/>
  <path id="Path_54" data-name="Path 54" d="M58.9,59.4A41.544,41.544,0,0,1,28.611,82.466a26.475,26.475,0,0,1-6.488.754c-7.969,0-15.275-3.309-18.821-8.729-4.762-7.22-6.382-22.526,9.318-33.849a56.611,56.611,0,0,0,1.4,5.5,25.33,25.33,0,0,0-7.378,8.623,15.788,15.788,0,0,0,.863,16.71C9.9,75.035,13.682,77.2,18.55,77.86a29.31,29.31,0,0,0,17.632-3.309c8.441-4.421,14.066-9.7,17.745-16.921a6.157,6.157,0,0,1-1.733-3.971,6.044,6.044,0,0,1,5.831-6.24h.226A6.054,6.054,0,0,1,58.915,59.5Zm19.04-13.368c8.109,9.159,8.328,19.939,5.193,26.193C80.214,77.94,72.51,83.657,62.15,83.657A33.622,33.622,0,0,1,48.2,80.315c1.521-1.079,3.679-2.806,4.868-3.885A27.671,27.671,0,0,0,63.7,78.694,15.882,15.882,0,0,0,78.513,69.86a14.894,14.894,0,0,0,.219-12.719,28.883,28.883,0,0,0-11.469-13.8,41.28,41.28,0,0,0-23.072-7.008H42.246A6.116,6.116,0,0,1,36.933,40h-.206a6.041,6.041,0,0,1-.2-12.077h.219A5.98,5.98,0,0,1,42.06,31.16h1.733c13.814,0,25.941,5.281,34.149,14.876ZM22.986,61.257a4.824,4.824,0,0,1,.757-3.13c-6.057-10.456-9.3-23.711-4.323-37.509C22.986,10.248,31.965,3.24,41.7,3.24c10.387,0,21.205,9.06,22.5,26.517-1.62-.536-3.985-1.324-5.406-1.615C58.444,22.431,53.6,8.2,42.133,8.415c-4.111.112-10.168,2.051-13.282,6.035a28.853,28.853,0,0,0-6.4,16.709,39.336,39.336,0,0,0,5.625,23.929,1.832,1.832,0,0,1,.757-.106h.213a6.036,6.036,0,1,1,.219,12.071h-.219a6.074,6.074,0,0,1-6.057-5.817Z" transform="translate(-0.001 -0.945)" fill="#764abc"/>
</svg>
