<svg xmlns="http://www.w3.org/2000/svg" width="113.662" height="85.008" viewBox="0 0 113.662 85.008">
  <path id="sass-original" d="M1.219,52.447a5.013,5.013,0,0,0,.292,1.465,18,18,0,0,0,3.9,7.012,46.232,46.232,0,0,0,8.649,7.589c2.7,1.945,5.465,3.846,8.181,5.776.466.331.907.712,1.413,1.119-.435.235-.8.443-1.174.634a62.845,62.845,0,0,0-10.211,6.324A20.884,20.884,0,0,0,7.195,87.5c-2.1,3.324-2.85,6.866-1.281,10.647a6.285,6.285,0,0,0,2.143,2.764,3.168,3.168,0,0,0,1.052.543c.958.225,1.934.373,2.9.551l2.746,0a17.082,17.082,0,0,0,8.3-3.035,18.208,18.208,0,0,0,7.664-10.942,19.314,19.314,0,0,0-.113-10.1c-.09-.311-.2-.617-.32-.918s-.256-.595-.419-.97l6.225-3.579.093.08c-.113.37-.234.74-.336,1.114a25.21,25.21,0,0,0-1.055,8.253,15.839,15.839,0,0,0,2.771,8.28,4.015,4.015,0,0,0,6.286.068,14.5,14.5,0,0,0,1.438-2.275c1.015-2.1,1.955-4.229,2.924-6.347l.169-.387c-.07,1-.151,1.884-.188,2.766a10.541,10.541,0,0,0,.493,4.056,2.8,2.8,0,0,0,2.372,2.106,2.982,2.982,0,0,0,2.223-.811,9.4,9.4,0,0,0,2.436-2.9c1.721-3.16,3.488-6.3,5.048-9.542,1.687-3.5,3.163-7.111,4.73-10.675l.259-.632c.37,1.455.628,2.88,1.1,4.229a39.967,39.967,0,0,0,1.98,4.579,1.37,1.37,0,0,1-.177,1.745c-2.042,2.462-4.049,4.955-6.058,7.444a16.722,16.722,0,0,0-1.257,1.709,3.351,3.351,0,0,0-.435,1.235,1.573,1.573,0,0,0,1.252,1.784,8.746,8.746,0,0,0,2.452.175,14.359,14.359,0,0,0,7.6-2.858,7.967,7.967,0,0,0,3.146-8.6,19.981,19.981,0,0,0-.857-2.783,1.028,1.028,0,0,1,.111-1.085,88.581,88.581,0,0,0,6.175-10.473,2.158,2.158,0,0,1,.277-.436,27.2,27.2,0,0,0,3.122,8.865c-.826.8-1.643,1.517-2.383,2.312a15.939,15.939,0,0,0-3.778,5.97,7.053,7.053,0,0,0-.419,3.082,2.6,2.6,0,0,0,3.207,2.357,14.577,14.577,0,0,0,8.7-5.364,7.052,7.052,0,0,0,1-6.439c-.17-.623-.372-1.236-.589-1.95.861-.267,1.7-.588,2.568-.786a22.764,22.764,0,0,1,13.309.779,10.045,10.045,0,0,1,5.8,5.043c1.484,3.059.664,5.961-2.22,7.895a4.946,4.946,0,0,0-.8.548.786.786,0,0,0-.186.607c.019.111.313.251.483.249a4.413,4.413,0,0,0,2.454-1.015,7.558,7.558,0,0,0,3.488-5.266l.057-.17-.07-1.476c-.028-.085.021-.169.014-.234a11.571,11.571,0,0,0-4.719-7.865A17.214,17.214,0,0,0,99.923,66a23,23,0,0,0-8.84,1.361c-.812.294-1.617.643-2.433.971-.11-.2-.227-.388-.324-.585-.838-1.716-1.854-3.357-2.079-5.325a11.92,11.92,0,0,1-.023-4.176c.32-1.33.736-2.637,1.128-3.949a.962.962,0,0,0-.585-1.358,2.584,2.584,0,0,0-.712-.234,10.959,10.959,0,0,0-4.681.348,1.341,1.341,0,0,0-1.058,1.064c-.069.345-.209.675-.307,1.016a25.4,25.4,0,0,1-1.333,4.205C77.052,62.718,75.2,65.971,73.3,69.2c-.205.349-.422.691-.681,1.113A14.592,14.592,0,0,1,71.027,66.2,12.619,12.619,0,0,1,71,61.243c.307-1.228.708-2.432,1.077-3.644a.844.844,0,0,0-.427-1.181,2.513,2.513,0,0,0-.858-.333,10.54,10.54,0,0,0-4.847.4,1.309,1.309,0,0,0-.9.984,37.948,37.948,0,0,1-1.438,4.449C61.1,67.672,58.516,73.4,55.935,79.127c-.539,1.2-1.17,2.35-1.777,3.514a8.16,8.16,0,0,1-.57.832.679.679,0,0,1-.213-.432,11.919,11.919,0,0,1,.057-2.205c.425-2.153.913-4.294,1.429-6.427.425-1.762.921-3.507,1.392-5.257a1.65,1.65,0,0,0-.26-1.626,2.431,2.431,0,0,0-3.061-.37l-.387.219.075-.625a9.731,9.731,0,0,0-.146-3.992,3.177,3.177,0,0,0-3.337-2.538,7.168,7.168,0,0,0-2.365.45,17.889,17.889,0,0,0-7.5,5.946,2.346,2.346,0,0,1-.685.592c-2.619,1.452-5.246,2.886-7.872,4.325l-2.923,1.6c-.784-.748-1.5-1.524-2.3-2.182-2.469-2.013-4.977-3.977-7.463-5.968a29.416,29.416,0,0,1-5.971-5.939,10.63,10.63,0,0,1-2.073-5.789,13.588,13.588,0,0,1,2.076-7.57,29.04,29.04,0,0,1,6.89-7.538A63.832,63.832,0,0,1,28,32.14,68.342,68.342,0,0,1,41.9,26.008a38.4,38.4,0,0,1,15.358-1.746,15.78,15.78,0,0,1,5.909,1.716,6.1,6.1,0,0,1,3.1,3.364,8.412,8.412,0,0,1,.147,4.711,17.984,17.984,0,0,1-4.7,8.193,31.783,31.783,0,0,1-12.992,8.23,35.738,35.738,0,0,1-8.84,1.886,16.647,16.647,0,0,1-7.229-.871,9.4,9.4,0,0,1-3.982-2.7c-.194-.226-.442-.472-.8-.26a.686.686,0,0,0-.3.886,8.682,8.682,0,0,0,.69,1.664,9.478,9.478,0,0,0,3.153,2.986,15.427,15.427,0,0,0,7.84,2.152,39.439,39.439,0,0,0,12.361-1.575A30.325,30.325,0,0,0,66.443,45.69c3.355-3.739,5.751-7.958,6.265-13.053a12.635,12.635,0,0,0-1.18-7.192A13,13,0,0,0,65.855,19.9,24.011,24.011,0,0,0,54.691,17h-3.9c-4.717,0-9.276,1.352-13.709,2.964a94.171,94.171,0,0,0-9.839,4.258C20.287,27.7,13.81,31.887,8.489,37.649A28.006,28.006,0,0,0,2.3,47.417c-.378,1.092-.736,2.262-1.006,3.391m25.2,32.6a14.389,14.389,0,0,1-5.121,9.96,11.649,11.649,0,0,1-5.858,2.924,4.3,4.3,0,0,1-2.439-.17,2.489,2.489,0,0,1-1.4-2.547,9.216,9.216,0,0,1,1.377-4.695,16.782,16.782,0,0,1,4.292-4.713,65.774,65.774,0,0,1,8.39-5.653l.22-.091a14.725,14.725,0,0,1,.54,4.985ZM49.275,65.867A30.458,30.458,0,0,1,48.42,69.7a112.864,112.864,0,0,1-4.782,12.649,21.82,21.82,0,0,1-1.243,2.188,1.528,1.528,0,0,1-.256.3c-.523.517-1.019.49-1.284-.186a14.253,14.253,0,0,1-.66-2.459,13.029,13.029,0,0,1-.118-1.717,21.524,21.524,0,0,1,3.382-11.207,10.479,10.479,0,0,1,3.257-3.67,5.675,5.675,0,0,1,1.444-.639c.769-.216,1.242.139,1.114.911Zm15.538,19.8L70.4,79.143C70.631,81.565,66.514,86.4,64.813,85.664ZM82.65,81.276c-.395.226-.825.389-1.229.6-.37.192-.492,0-.5-.32A2.159,2.159,0,0,1,81,80.9a14.039,14.039,0,0,1,4.207-6.777l.145-.074a5.983,5.983,0,0,1-2.7,7.226Z" transform="translate(-1.219 -17)" fill="#cb6699" fill-rule="evenodd"/>
</svg>
